<svg version="1.1" id="Layer_1" xmlns="http://www.w3.org/2000/svg" xmlns:xlink="http://www.w3.org/1999/xlink" x="0px" y="0px"
	 width="100%" viewBox="0 0 2240 840" enable-background="new 0 0 2240 840" xml:space="preserve">
<path fill="none" opacity="1.000000" stroke="#000000" stroke-linecap="round" stroke-linejoin="round" stroke-width="4.000000"
	d="
M2208.500000,840.500000 
	C2219.166748,840.500000 2229.833252,840.500000 2240.500000,840.500000 
	C2240.500000,564.166687 2240.500000,287.833344 2240.500000,11.478312 
	C2230.371094,6.445711 2219.921875,2.416528 2208.500000,1.500000 
"/>
<path fill="none" opacity="1.000000" stroke="#000000" stroke-linecap="round" stroke-linejoin="round" stroke-width="5.000000"
	d="
M1111.000000,413.500000 
	C1117.857666,413.825806 1123.887573,410.611664 1129.940430,408.341034 
	C1157.569336,397.976593 1183.257446,384.099060 1206.052979,365.063446 
	C1218.368164,354.779510 1229.516113,343.634064 1236.439209,328.971313 
	C1240.773193,319.792236 1242.759033,310.149078 1236.428589,301.049683 
	C1229.527588,291.130035 1218.784180,289.262939 1208.026733,290.700256 
	C1188.473999,293.312683 1172.167725,303.317444 1156.917603,315.396027 
	C1151.979248,319.307465 1148.044312,324.774628 1141.500000,326.500000 
"/>
<path fill="none" opacity="1.000000" stroke="#000000" stroke-linecap="round" stroke-linejoin="round" stroke-width="5.000000"
	d="
M1417.500000,281.500000 
	C1415.986328,288.389771 1411.551025,293.928802 1408.281982,299.880280 
	C1399.626465,315.638123 1391.310425,331.567596 1383.032471,347.516876 
	C1367.752197,376.957886 1352.720337,406.527832 1337.469238,435.984070 
	C1332.498169,445.585327 1327.199585,455.018127 1321.979004,464.488403 
	C1320.503784,467.164307 1318.718384,469.639374 1315.500000,470.500000 
"/>
<path fill="none" opacity="1.000000" stroke="#000000" stroke-linecap="round" stroke-linejoin="round" stroke-width="5.000000"
	d="
M932.500000,406.000000 
	C934.108887,408.403839 933.377380,411.183075 932.866760,413.470276 
	C930.837280,422.560822 929.948059,431.762177 928.847290,440.981750 
	C927.587524,451.532654 927.737854,462.010376 928.611206,472.490723 
	C929.022644,477.428162 930.222717,482.304565 933.425964,486.555786 
	C936.603516,490.772949 940.224426,492.396271 945.006653,491.023254 
	C953.988647,488.444611 960.860291,482.535980 967.431763,476.426636 
	C976.245239,468.232880 984.498657,459.468048 992.072388,450.058258 
	C995.607544,445.666046 1000.329956,442.452271 1003.680664,437.625427 
	C1008.806885,430.240845 1011.755188,421.895294 1015.305847,413.913605 
	C1026.130981,389.579895 1037.636719,365.576477 1048.948242,341.475739 
	C1052.686035,333.511902 1057.137939,325.868805 1060.000000,317.500000 
"/>
<path fill="none" opacity="1.000000" stroke="#000000" stroke-linecap="round" stroke-linejoin="round" stroke-width="4.000000"
	d="
M1302.500000,286.750031 
	C1302.166748,287.000031 1301.672607,287.177856 1301.523315,287.510468 
	C1296.946167,297.704437 1286.795166,303.294739 1280.969360,312.480530 
	C1274.891968,322.062988 1267.645508,330.823517 1261.071655,340.051025 
	C1242.533447,366.071808 1224.357422,392.350189 1205.984375,418.489044 
	C1200.861694,425.777039 1195.742920,433.105560 1189.460083,439.460510 
	C1185.661255,443.302887 1186.098145,449.216400 1182.469116,452.970123 
	C1176.672119,458.966034 1174.460938,467.513336 1168.000000,473.000000 
"/>
<path fill="none" opacity="1.000000" stroke="#000000" stroke-linecap="round" stroke-linejoin="round" stroke-width="3.000000"
	d="
M1295.500000,298.500000 
	C1296.698364,301.513519 1295.697510,304.263062 1294.502563,307.001129 
	C1283.664917,331.832550 1272.850098,356.673981 1261.994385,381.497559 
	C1254.189941,399.343475 1246.400879,417.196716 1238.481323,434.991730 
	C1230.231567,453.528870 1221.817017,471.992676 1213.504395,490.501984 
	C1204.152100,511.326782 1194.859009,532.178223 1185.485840,552.993652 
	C1182.240845,560.200073 1178.688721,567.271545 1175.584595,574.536194 
	C1174.603638,576.831665 1173.778809,578.605286 1171.000000,578.500000 
"/>
<path fill="none" opacity="1.000000" stroke="#000000" stroke-linecap="round" stroke-linejoin="round" stroke-width="5.000000"
	d="
M1324.000000,317.500000 
	C1323.684570,333.942139 1321.570068,350.203003 1319.828857,366.535065 
	C1318.325439,380.635559 1316.523804,394.771118 1315.922485,408.996735 
	C1315.485107,419.346771 1314.408569,429.673462 1313.476196,439.997864 
	C1312.724487,448.320343 1312.600708,456.654419 1312.398438,464.997528 
	C1312.328125,467.896942 1315.331909,469.250519 1315.000000,472.000000 
"/>
<path fill="none" opacity="1.000000" stroke="#000000" stroke-linecap="round" stroke-linejoin="round" stroke-width="6.000000"
	d="
M982.750000,277.000000 
	C979.666687,283.666656 976.508850,290.300079 973.513794,297.006165 
	C963.943359,318.434723 954.662659,339.992401 946.555603,362.020447 
	C941.841125,374.830353 937.383850,387.757782 934.060913,401.015259 
	C932.724731,406.346130 926.871338,406.911072 924.500000,411.000000 
	C915.275940,411.855194 907.733276,417.999756 898.529114,419.219604 
	C896.273193,419.518585 893.933289,420.466614 891.435364,420.502838 
	C890.209045,417.942444 890.244629,414.978302 888.574158,412.450989 
	C886.035400,408.610016 882.609192,406.391541 879.021606,407.565948 
	C876.310364,408.453430 873.924866,409.868958 873.943176,413.500275 
	C873.963806,417.579315 875.668457,419.026947 880.531433,420.387665 
	C883.858826,421.318726 887.421082,422.491028 890.769897,420.770721 
	C893.349304,428.166656 891.881348,435.424622 890.869263,442.481262 
	C888.672607,457.797760 884.811707,472.782288 879.991333,487.497162 
	C875.782898,500.344116 871.528137,513.176147 867.221191,525.990295 
	C866.536987,528.025940 866.286865,529.781006 866.866333,532.034363 
	C867.962524,536.296814 864.746460,539.837158 863.223755,543.381348 
	C860.994019,548.571167 859.243164,554.018433 856.500000,559.000000 
"/>
<path fill="none" opacity="1.000000" stroke="#000000" stroke-linecap="round" stroke-linejoin="round" stroke-width="4.000000"
	d="
M1062.500000,316.500000 
	C1053.192749,313.400238 1049.689819,321.993042 1044.670288,326.203033 
	C1022.337036,344.934540 999.558655,363.023621 975.523315,379.533905 
	C964.949768,386.797058 953.992188,393.420044 942.987976,399.979858 
	C940.408630,401.517487 937.715881,402.959198 934.500000,402.000000 
"/>
<path fill="none" opacity="1.000000" stroke="#000000" stroke-linecap="round" stroke-linejoin="round" stroke-width="4.000000"
	d="
M924.500000,411.500000 
	C925.634094,416.033569 922.525085,419.348846 920.916138,422.962677 
	C910.206360,447.017456 899.626465,471.129974 888.659058,495.072845 
	C883.722839,505.849121 877.894958,516.234558 873.893738,527.462158 
	C872.909241,530.224609 870.970947,532.913025 867.500000,533.500000 
"/>
<path fill="none" opacity="1.000000" stroke="#000000" stroke-linecap="round" stroke-linejoin="round" stroke-width="4.000000"
	d="
M1322.500000,325.000000 
	C1318.427856,326.376160 1317.611816,330.572052 1316.180054,333.585541 
	C1304.691406,357.765869 1293.646118,382.157288 1282.512207,406.505646 
	C1279.099365,413.969269 1275.771484,421.473511 1272.539185,429.016785 
	C1271.619751,431.162354 1270.753906,431.754150 1268.064209,432.310333 
	C1260.406616,433.893738 1253.268799,437.498962 1245.937012,440.337250 
	C1242.975098,441.483856 1240.208618,444.226257 1236.500000,443.000000 
"/>
<path fill="none" opacity="1.000000" stroke="#000000" stroke-linecap="round" stroke-linejoin="round" stroke-width="3.000000"
	d="
M1095.000000,419.000000 
	C1095.169556,421.423950 1094.019897,423.441589 1093.000366,425.500183 
	C1084.333008,442.999847 1075.814941,460.575531 1066.953735,477.976440 
	C1059.680664,492.258698 1052.080811,506.377319 1044.422852,520.458069 
	C1043.101440,522.887817 1041.563354,525.563354 1038.500000,526.500000 
"/>
<path fill="none" opacity="1.000000" stroke="#000000" stroke-linecap="round" stroke-linejoin="round" stroke-width="5.000000"
	d="
M1161.500000,607.500000 
	C1164.000000,599.833313 1166.424194,592.140686 1169.038086,584.513062 
	C1170.058350,581.535522 1170.478271,578.766663 1170.238770,575.482605 
	C1169.927856,571.220581 1171.063477,566.771118 1172.045654,562.510559 
	C1176.828735,541.761902 1178.839111,520.752808 1177.920654,499.503418 
	C1177.652588,493.302063 1176.066040,487.208160 1173.436157,481.529602 
	C1172.501587,479.511597 1171.220947,477.141907 1169.424438,476.134735 
	C1164.768311,473.524658 1161.470459,469.079681 1156.500000,467.000000 
"/>
<path fill="none" opacity="1.000000" stroke="#000000" stroke-linecap="round" stroke-linejoin="round" stroke-width="4.000000"
	d="
M1046.500000,421.500000 
	C1048.500000,425.500000 1050.615112,429.447235 1052.478027,433.510101 
	C1057.696655,444.891327 1056.288696,456.759216 1054.427368,468.488464 
	C1051.694946,485.707214 1045.237793,501.835602 1038.991577,517.996765 
	C1038.724121,518.688843 1037.956055,519.398010 1038.057495,519.990112 
	C1039.277466,527.106201 1034.589844,532.409607 1032.500000,538.500000 
"/>
<path fill="none" opacity="1.000000" stroke="#000000" stroke-linecap="round" stroke-linejoin="round" stroke-width="6.000000"
	d="
M1248.500000,483.000000 
	C1251.833374,484.000000 1255.208496,484.879669 1258.492432,486.021790 
	C1269.971436,490.014038 1271.693359,496.640533 1266.363159,505.416901 
	C1259.013062,517.519165 1248.459229,526.783386 1237.023804,535.033020 
	C1235.158813,536.378479 1233.109253,536.661133 1231.000000,537.000000 
"/>
<path fill="none" opacity="1.000000" stroke="#000000" stroke-linecap="round" stroke-linejoin="round" stroke-width="4.000000"
	d="
M1050.500000,430.000000 
	C1042.815063,434.628296 1036.321533,440.794708 1029.548096,446.556519 
	C1016.516174,457.641968 1004.256470,469.627960 991.326172,480.798767 
	C981.974670,488.877747 976.043945,499.050140 969.551025,509.033173 
	C969.022461,509.845825 967.760254,510.803558 968.526428,511.982849 
	C973.869080,520.207031 968.886597,527.303772 965.926208,534.469482 
	C963.225830,541.005676 960.488831,547.574402 956.540405,553.526794 
	C956.233337,553.989807 956.500000,554.833313 956.500000,555.500000 
"/>
<path fill="none" opacity="1.000000" stroke="#000000" stroke-linecap="round" stroke-linejoin="round" stroke-width="4.000000"
	d="
M1130.000000,344.500000 
	C1131.805298,348.470825 1128.882690,351.619415 1127.851196,354.953979 
	C1126.149048,360.456787 1122.977661,365.515350 1121.378052,371.037109 
	C1119.227783,378.459778 1118.174683,386.209290 1115.462646,393.486084 
	C1112.711914,400.866577 1111.199707,408.625000 1108.927612,416.129456 
	C1107.188232,421.873962 1106.586792,428.348572 1105.484741,434.497253 
	C1103.585693,445.093323 1103.396240,455.774689 1103.429199,466.500214 
	C1103.444458,471.511993 1105.351318,475.868347 1107.654175,479.912170 
	C1109.341797,482.875519 1113.058105,483.241852 1116.402710,484.305878 
	C1123.430298,486.541565 1129.082886,483.527344 1134.363403,480.741119 
	C1139.525146,478.017548 1144.167358,473.961823 1148.824463,470.278137 
	C1150.539673,468.921448 1151.557007,467.277802 1154.002930,467.460236 
	C1154.713989,467.513245 1155.367188,467.121552 1156.040649,466.547638 
	C1164.144409,459.640594 1172.335205,452.835480 1180.498047,445.997650 
	C1181.807373,444.900970 1183.262695,444.288147 1185.000000,444.500000 
"/>
<path fill="none" opacity="1.000000" stroke="#000000" stroke-linecap="round" stroke-linejoin="round" stroke-width="5.000000"
	d="
M1152.000000,295.500000 
	C1151.458862,301.788208 1147.168457,306.608734 1145.347412,312.452454 
	C1143.891235,317.125763 1140.190063,320.997253 1140.850708,326.517853 
	C1141.015869,327.898407 1139.485107,329.612793 1138.470093,330.977753 
	C1135.953247,334.362427 1133.099976,337.608948 1131.604858,341.539856 
	C1130.337524,344.871429 1126.849243,344.793213 1124.768677,347.308685 
	C1111.875488,362.897461 1100.540161,379.481842 1090.481812,396.989532 
	C1089.956299,397.904022 1089.166748,398.666687 1088.500000,399.500031 
"/>
<path fill="none" opacity="1.000000" stroke="#000000" stroke-linecap="round" stroke-linejoin="round" stroke-width="3.000000"
	d="
M1231.000000,447.500000 
	C1226.634033,446.916412 1223.255005,449.672180 1219.527710,451.073700 
	C1206.290039,456.051422 1193.137329,461.260925 1180.029785,466.573486 
	C1177.918823,467.429108 1176.006226,466.907410 1174.000000,467.000000 
"/>
<path fill="none" opacity="1.000000" stroke="#000000" stroke-linecap="round" stroke-linejoin="round" stroke-width="5.000000"
	d="
M1311.500000,455.000000 
	C1306.261353,454.864014 1301.840942,457.716614 1296.986694,458.947327 
	C1283.321533,462.411835 1270.680420,469.278870 1256.509033,471.071869 
	C1255.605835,471.186188 1254.740112,472.245270 1254.014648,473.013824 
	C1248.031372,479.353058 1240.384766,481.570160 1232.000000,482.000000 
"/>
<path fill="none" opacity="1.000000" stroke="#000000" stroke-linecap="round" stroke-linejoin="round" stroke-width="5.000000"
	d="
M1246.000000,480.500000 
	C1248.514404,482.521759 1248.203491,484.754059 1247.059692,487.524658 
	C1241.922607,499.968048 1236.873291,512.451721 1232.082886,525.031555 
	C1230.772583,528.472534 1228.269775,531.932556 1230.029419,535.987183 
	C1230.682617,537.492126 1230.386597,538.994080 1230.500000,540.500000 
"/>
<path fill="none" opacity="1.000000" stroke="#000000" stroke-linecap="round" stroke-linejoin="round" stroke-width="4.000000"
	d="
M1150.000000,468.000000 
	C1143.342285,465.258789 1136.714478,467.615082 1130.558472,469.223602 
	C1116.613281,472.867371 1103.255737,478.289185 1091.480591,486.973663 
	C1089.652588,488.321869 1087.865845,489.559357 1087.459473,491.969086 
	C1092.056763,495.476471 1109.989868,492.629944 1119.000000,487.000000 
"/>
<path fill="none" opacity="1.000000" stroke="#000000" stroke-linecap="round" stroke-linejoin="round" stroke-width="2.000000"
	d="
M1.500000,810.500000 
	C2.467694,820.160889 5.196154,829.282959 9.397681,838.049011 
	C10.411749,840.164734 11.462408,840.577332 13.500731,840.539551 
	C19.498680,840.428589 25.500000,840.500000 31.500000,840.500000 
"/>
<path fill="none" opacity="1.000000" stroke="#000000" stroke-linecap="round" stroke-linejoin="round" stroke-width="2.000000"
	d="
M31.500000,1.500000 
	C23.646202,1.885980 16.353254,4.566558 9.000201,7.000607 
	C7.794660,7.399672 7.392660,8.307624 6.945227,9.479079 
	C4.223579,16.604818 2.115386,23.862181 1.500000,31.500000 
"/>
<path fill="none" opacity="1.000000" stroke="#000000" stroke-linecap="round" stroke-linejoin="round" stroke-width="4.000000"
	d="
M1108.000000,416.500000 
	C1103.361206,416.229675 1099.006958,417.072235 1094.432007,418.231567 
	C1087.695679,419.938599 1080.494995,419.785675 1073.501343,420.513092 
	C1066.139404,421.278778 1058.795654,419.474915 1051.514893,420.158844 
	C1046.560425,420.624237 1043.230835,419.290649 1039.294678,416.267242 
	C1035.890137,413.652039 1031.481567,411.127197 1026.500000,411.500000 
"/>
<path fill="none" opacity="1.000000" stroke="#000000" stroke-linecap="round" stroke-linejoin="round" stroke-width="3.000000"
	d="
M1119.500000,375.000000 
	C1117.388062,374.897186 1116.752930,376.242889 1115.936279,377.969849 
	C1110.391724,389.694275 1104.707520,401.353638 1098.933838,412.967102 
	C1098.386475,414.067780 1098.744995,415.013062 1098.500000,416.000000 
"/>
<path fill="none" opacity="1.000000" stroke="#000000" stroke-linecap="round" stroke-linejoin="round" stroke-width="4.000000"
	d="
M1372.500000,433.500000 
	C1367.896118,432.596344 1364.460449,435.721924 1360.513062,437.039001 
	C1354.463501,439.057373 1348.456055,441.221191 1342.519165,443.549011 
	C1339.698608,444.654999 1337.007202,445.644623 1334.000000,444.500000 
"/>
<path fill="none" opacity="1.000000" stroke="#000000" stroke-linecap="round" stroke-linejoin="round" stroke-width="4.000000"
	d="
M1269.500000,433.000000 
	C1270.304199,437.991028 1266.934326,441.757172 1265.322388,445.931427 
	C1262.910889,452.176727 1259.854614,458.189758 1257.367310,464.447266 
	C1256.486084,466.664276 1256.019409,468.722412 1256.000000,471.000000 
"/>
<path fill="none" opacity="1.000000" stroke="#000000" stroke-linecap="round" stroke-linejoin="round" stroke-width="3.000000"
	d="
M999.000000,445.000000 
	C1000.221924,447.273499 999.507385,449.277954 998.561584,451.525909 
	C994.852844,460.340912 990.579590,468.911652 987.336548,477.941284 
	C986.652039,479.847290 986.593140,481.275970 987.000000,483.000000 
"/>
<path fill="none" opacity="1.000000" stroke="#000000" stroke-linecap="round" stroke-linejoin="round" stroke-width="6.000000"
	d="
M1167.000000,475.500000 
	C1160.455688,485.586090 1153.196899,495.221222 1147.750000,506.000000 
"/>
<path fill="none" opacity="1.000000" stroke="#000000" stroke-linecap="round" stroke-linejoin="round" stroke-width="3.000000"
	d="
M1161.500000,472.999969 
	C1155.000000,475.499969 1148.537476,478.106384 1141.971436,480.418854 
	C1140.484985,480.942322 1138.594482,480.888611 1137.000000,480.000000 
"/>
<path fill="none" opacity="1.000000" stroke="#000000" stroke-linecap="round" stroke-linejoin="round" stroke-width="5.000000"
	d="
M1328.000000,450.500000 
	C1322.966675,448.600067 1318.766602,452.533234 1314.000000,452.500000 
"/>
<path fill="none" opacity="1.000000" stroke="#000000" stroke-linecap="round" stroke-linejoin="round" stroke-width="3.000000"
	d="
M1062.500000,311.000000 
	C1060.306641,311.701447 1058.892334,313.008820 1059.000000,315.500000 
"/>
</svg>